/* XPM */
static const char *bus_f_xpm[] = {
/* columns rows colors chars-per-pixel */
"92 113 92 1",
"  c #FCFEFC",
"` c #8C8E8C",
"2 c #847A7C",
"b c #3C3634",
"1 c #646264",
"= c #1C1E1C",
"% c #3C363C",
"N c #DCDADC",
"{ c #949694",
"V c #B4AEB4",
"L c #6C6A6C",
"x c #242624",
"t c #1C1214",
"D c #BCB6B4",
"6 c #E4E2E4",
"Q c #9C9E9C",
"U c #BCB6BC",
"/ c #747274",
"> c #2C2E2C",
"Z c #4C464C",
"e c #241A1C",
"s c #A4A6A4",
"[ c #544E4C",
"9 c #7C7A7C",
"G c #343634",
"A c #2C2224",
"^ c #0C0A0C",
"7 c #CCC6C4",
"J c #ACAEAC",
"m c #848284",
"n c #5C5654",
"E c #3C3E3C",
"w c #141214",
"g c #FCFAFC",
") c #B4B6B4",
"I c #D4CED4",
"p c #645E5C",
"$ c #444644",
"# c #645E64",
"q c #1C1A1C",
"h c #DCD6D4",
"~ c #BCBEBC",
"< c #4C4E4C",
"* c #242224",
"K c #C4C6C4",
"X c #E4DEE4",
"3 c #9C9A9C",
"Y c #545654",
"H c #746E74",
"F c #2C2A2C",
"o c #CCCECC",
"f c #ECE6EC",
"j c #A4A2A4",
"' c #5C5E5C",
"P c #7C767C",
"u c #343234",
"( c #D4D6D4",
"W c #847E7C",
"M c #ACAAAC",
"} c #646664",
"a c #847E84",
"T c #140E0C",
", c #3C3A3C",
"] c #FCF6F4",
"B c #DCDEDC",
"z c #140E14",
"5 c #FCF6FC",
"O c #B4B2B4",
"C c #6C6E6C",
"c c #1C1614",
"i c #444244",
"| c #E4E6E4",
"r c #1C161C",
"4 c #BCBABC",
"@ c #747674",
"- c #241E1C",
"! c #ECEEEC",
"; c #241E24",
"_ c #C4C2C4",
"+ c #9C9694",
"S c #7C7E7C",
"l c #545254",
": c #2C2624",
"v c #0C0E0C",
". c #FCFEFC",
"d c #CCCACC",
"8 c #A49E9C",
"R c #848684",
"k c #7C7274",
"0 c #5C5A5C",
"& c #342E2C",
"y c #141614",
/* pixels */
"                                .XoO+@#$%&*=*-;=;:>,<1234oX.                                ",
"                          567890,:qwwwqeqq=;=e=-*=eqrtwywquipasdf                           ",
"                      ghjkluqzzwr=e;*x;*-=;*;;;-;=*-***---cqwvt=bnmMNg                      ",
"                   BVCZ*wwwqq*;**;x=-*=*=-*;--A*=A-=x--x-x=-=*-=ywwrAZSDf                   ",
"                fjpFyzqy====x==*=x;**==x-=*-=*--x--x-x=x-xx=-=x-=-=qqytwGHJf                ",
"             gKLFww===x=x==x=x==x=x==x=x--x-x-x-x-x-x=-xx=-x=x==***=**;qrwruPI              ",
"            UYqvy==*x===xx=x==xx=x=xx=x=x=x=xx=x-=xxxxxx-xxxx-x=x=x=x==x====w*1K            ",
"          Kl=y==x=x==xxx=yyyvyyvyyvyyvyvvyvyTyTvyytyyTyvyyyvyvvyvyyx==x==x=x=yw*1N          ",
"        gR=zyx==xx=xxxxx=ESSSSSSSSSSSSSSSS@RSSSSSSSS2WSWSSSSSSSSRCG=xx=x=x=x=x==zxQ         ",
"       !#v==x=xx=xxxxxx=Y!................   . .           .  ....BG==xxx=x===x==qw9g       ",
"      50w==x==xxxxxxxxx=~... . . . . ..  . .                    ...Q=x=xx=xx===xx==^/       ",
"      Sv==x=xxxxxxxxxxxx(.. .  .  . .   .                      . ..)=xxxxx=xx=x====yzQ      ",
"     _y==x=xxxxxxxxxxxx=Q.. . .  .  . .  .                        .`y=xxxxx=xxx=x=x==>B     ",
"     'v=x=xxxxxxxxxxxxx=Go..............! ..] .] .]]]]]] ]]]. ....J>xxxxxxxxx==xx=x==^m     ",
"    o*==x=xxxxxxxxxxxxxxxx<YY<YY<YY<YYY<Y<<<<<<<<[Y<<<[<<[<[<<Y<Y$x=xxxxxxxxxxx=xx=xxyG..   ",
"    `yx=xxxxxxxxxxxxxxxxx=y==y=y==y====y=yyyyyyy=yy=ycyyyyy=y=yyy=xxxxxxxxxxxxxxx=xx=xy4    ",
"    Lvxxxxxxxxxxxxxxxxxxxxxx=xx=xx=xxxxxxxx=xx=x==x=x==x==x=x=xxxxxxxxxxxxxxxxxxxxxxxxyR.   ",
"   .<yxxxxxxxxxxxxxxxxxxxxxxxxxxxxxxxxxxxxxxxxxxxxxxxxxxxxxxxxxxxxxxxxxxxxxxxxxxxxxxx=yC    ",
"   !Ex=xxxxxxx=========================y===========y===y=====================yxxxxxxxxy'.   ",
"  .B>xxxxxxx=x$<<<<<<<<<<<<<<<<<<<<<<<<<<<<<<<<<<<<<<<<<<<<<<<<<<<<<<<<<<<<<<E==x=xxx==$.   ",
"   K==xxxxx=EK.........................!!!!!!!!!!!!!!!!!!!!!!!!!.!...........!sx=xxxxx=GB.  ",
"  .J=xxxxxx>(..................................................................s=xxxxxxxo   ",
"   {=xxxxxy@........................... . . . . . . . . . . . .. ...............$=xxxxx=~.  ",
"  .S=xxxx==Q...   .   .   .   .   .    . . . . . . . . . . . .  .    .    . . ..'=xxxxx=Q   ",
"   'yxxxxx=).. .  . .  .   .  . .  .  .   .  .  .  .  .  .  .  . .  .  . . .  ..RyxxxxxyR.  ",
"  .<=xxxx=xo..  . .   .  . . .   .  . .  .  .  .  .  .  . .  . .  .  . . .  . ..Q=xxxxxy}   ",
"  !G==xxx=>B...  .  .  .  . . .  .  .  . . . .  . . .  .   .  .  .  .  . . . . .)==xxxx=<.. ",
" .(>=xxxx=$..  .  .  . . .   .  . .  . .  .   . .  .  .  .  .  .  . .  .  ..  ..oxxxxxx=E.  ",
"  ~=xxxxx=Y...  .  .  .  . .  .  .  .   .  . .  .  . .  . .  .   .   .  . . .  .|>=xxxx=>|. ",
"..J=xxxxx=@... .  .  .  . .  . .  .  . . .  .  .  .   . .  .  .  .  .  . .. .....$=xxxxxxo. ",
"  `=xxxxx=R.. . .  .  .   . .  . .  .   .  .  .  . .   .  .   . .  . .  . ... ...'=xxxxx=J..",
" .@yxxxxx=s..  .  . .  . .   .  .  .  . .  .   .  .  ..  .  . .   . .  . .   . ..@=xxxxxy{  ",
" .'y=xxxx=~.. .  .  .  .  .  .  . .  .  . .  .  .  .   . . .  . .   . .  . .  . .`yxxxxx=S..",
"..$=xxxxxxB..   . .  .  . . .  .   .  . .   . . . .  . .  .  .   . .  .  .   . ..s=xxxx=y'  ",
" |>=xxxx=G!.. .   . .  .   . . . .   .   . .   .  . . . .  .  . .   .  .  .  . ..K=xxxxx=<..",
".(x=xxxx=<.. . . .   .  . . .  .   .  . . .  .  . .  .    .  .   . .  . . . .  ..Bxxxxxx=E| ",
" ~===xxxy}...   . . .  .   .  . .  . .   .  . .   . .  . .  . .  . . .  .  . .  .!E=xxxxxx(.",
".Q==xxxxyS.. . .  .  .  . .  .   . .   .  .  .  .  .  .  .  .  . .  .  .  .  . ...<=xxxxx=K ",
" Rvx=xxxyQ..  . .  .  .  .  .  .  .  .   .  .  .  .  . .  .  .  .  . .  .  .  . ..}yxxxxx=s.",
".}yxxxx==).. .  . .  .  .  . .  . .  .  .   .   .  .  .  . . . .  .  . .  .  . ...S=xxxx==` ",
" YyxxxxxxK..  .  . . . .  .   .  .  . .  ..  . .  .  .  .   .  . .   . . . .  .  .Q=xxxxx=@.",
".E=xxxx=G|. . . .  .  .  .  . . .  .   . .  .   . .  .   . .  .   . .   . . . . ..)=xxxx=y' ",
"|Gyxxxx=E... .  . .  .  .  .  .  . . .  .  . .  .  .  . .  . . .   . . .  .. .  ..o=xxxxx=E.",
"(x=xxxx=Y.. .  .  .  .   .  .  . .  .  .  .  . .  .  . .  .  .  . . .   . . . . ..|>xxxxx=G|",
"Ky=xxxx=C... .  .  .  . .  . .   .  . .  .  .  . . .  .  .  .  .  .  . .  . . . ...$=xxxx=xB",
"Jyxxxxxy`.. .  .  . . .  . .   .  . .   .  .  .  .  .  .  .  .  . .  .   . ..  . ..Y=xxxx==o",
"Ry=xxxx=s..  .  . .  . .   . .  .  .  .  .  . . .  .  .  .  . .   . .  .   . . . ..@=xxxxxyJ",
"}=xxxx==K.  .  . .  .    . .  . . .  .  .  .  .   .  .  .  .   . .   . .  . . .  ..R=xxxxxy`",
"$yxxxxxx(...  .   .  ..  .  .  .  . .  .  . .  . .  .  .  .  .   . .   . .  . . . .)==xxxx=C",
"Gxxxxx=E!..  .  . . .  .  . . .  .   .  . .  .  .  .  .  . .  . .   .  .   .  . ...K=xxxxxy<",
"=xxxxx=Y... . .  .  .  . .   . . . .   .   .  .  .  . . .   .  .  .  .  . .  .  . .B>xxxxx=G",
"=xxxxx=Y..   .  . .  . .   .  .  .   .  . . . . . . .  .  .  .  .  .  . .   . . ...|>=xxxx=G",
"=xxxxxx>B.. .  .   .  .  .  .  .  . .  .   .  .  .  . .  .  . .  .  .   . .   .. ..J=xxxxxxx",
"=xxxxxx='. .  .  . . .  . .  . . .   .  . . .  . .  .   .  .   .  .  . .   . .  ..(E=xxxxx=>",
"=xxxxxxx=$Q)))))J~J~J~J)))))J)))))))J)))))))))J))))))J)))J))))J)))))J)))))J))))))`G=xxxxxxx>",
"xxxxxxxx=y===y=y=y=y=y==yy=y==y==y=y=y=y=yy=yy=y==yy=y=yy==y=y=y=y=yy==y=y======yyxxxxxxxx=>",
"=xxxxxxxxxx=x==x==x==x==x=x=x=x==x=x=x==x=x=x=x=x=x==x=x==x==x=x=x=x=x==x=x=x=xx=xxxxxxxxxx>",
"=xxxxxxxxxxxxxxxxxxxxxxxxxxxxxxxxxxxxxxxxxxxxxxxxxxxxxxxxxxxxxxxxxxxxxxxxxxxxxxxxxxxxxxxxx=>",
"=xxxxxxxxx=xxxxxxxxxxxxxxxxxxxxxxxx=xxxxxxxxxxxxxxxxxxxxxxxxxxxxxxxxxxxxxxxxxxxxxxxxxxxxxxx>",
"=xxxxxxxxxxxxxxxxxxxxxxxxxxxxxxxxxxxxxxxxxxxxxxxxxxxxxxxxxxxxxxxxxxxxxxxxxxxxxxxxxxxxxxxxx=>",
"=x=xxxx=xxxx=xx=xx=xxxxxxxxxxxxxxxxxxxxxxxxxxxxxxxxxxxxxxxxxxxxxxxxxxxxxxxxxxxxxxxxxxxxxxxxx",
"=xxxxxxxxxxxxxxxxxxxxxxxxxxxxxxxxxxxxxxxxxxxxxxxxxxxxxxxxxxxxxxxxxxxxxxxxxxxxxxxxxxxxxxxxx=>",
"=x=xxx=xx=xxxx=xxx=xxxxxxxxxxxxxxxxxxxxxxxxxxxxxxxxx=xxx=xx=xxx=xx=xxx=xx=xxx=xx=xxx=xxxxxx>",
"=xxxxxxxxxxxxxxxxxxxx=xxx=xx=xxx=xx=xxx=xx=xxx=xx=xxxxxxxxxxxxxxxxxxxxxxxxxxxxxxxxxxxxxxxx=>",
"==xxxxxxxxx=xxxxxxxxxxxxxxxxxxxxxxxxxxxxxxxxxxxxxxxxxx=xxxxxx=xxxxxx=xxxxxx=xxxxxxxxxxxxxxxx",
"=xxxxxx=xxxxxxxxxx=xxxx=xxxxxx=xxxxxx=xxxxxx=xxxxxx=xxxxxx=xxxxxx=xxxxxx=xxxxxxxxxxxxxxxxx=>",
"==xxxxxxxxxx=xx=xxxxxxxxxx=xxxxxx=xxxxxx=xxxxxx=xxxxxxxxxxxxxxxxxxxxxxxxxxxxxxxxxxxxxxxxxxx>",
"=xxxxxxxxx=xxxxxxxxxx=xxxxxxxxxxxxxxxxxxxxxxxxxxxxxxx=xxxxxx=xxxxxx=xxxxxx=xxxxx=xxxxxxxxx=>",
"=xxxxxxxxxxxxxxxxxxxxxxx=xxxxxx=xxxxxx=xxxxxx=xxxxxxxxxxxxxxxxx=xxxxxxxxxxxxx=xxxxxxxxxxxxxx",
"=xxxxxxxxxxx=====xx=xxxxxxxxxxxxxxx=xxxxxxxxxxxxxxxxxxx=xx=xxxxxxxxxxx=x=xxx====xxx=x=xxxx=>",
"=xxxxxxxx====GE>==xxxxx=xxx=xxxxxxxxxxxx=xx=xxxxxxxxxxxxxxxxxxxxxxxxxxxxxxy=GEGxy=xxxxxx=xxx",
"=xxxxxxxx=>R(!!|J$=xxxxxxxxxx=xx=xxxxx=xxxxxxxxxxxxxxxxxxxxxx=xx=xx=xxxx=y')!!!K@x=xxxxxxx=>",
"=xxxxxxx=Go.......@==xxxxxxxxxxxxxxxxxxxxx=xxx=xxx=xx=xxx=xxxxxxxxxxxxxx=`.......~>=xxxxxxxx",
"=xxxxxx=>B.........'=xxxx=xxxxxxx=xxx=xxxxxxxxxxxxxxxxxxxxxxxxxxxxxxxxx=R.........)x=xxxxx=>",
"=xx=xxx=`..........B>=xxxxxxxxxxxxxxxxx=xxxxxxxx=xxxxxx=xxxxxxxxxxxxxx=$.... . ....@=x=xxxxx",
"=xxxxx=>B.. .  . ...}==xxx=xxx=xxx=xxxxxxxxxx=xxxxxx=xxxxxxxxxxxxxxxx==`..  . . ...K=xxxxx=>",
"==xxxx=<.... .  . ..{=xxxxxxxxxxxxxxxxxxxxxxxxxxxxxxxxxxxxxxxxxxxxxxxx=)...  . . ..|>=xxxxx>",
"=xxxx==Y.. .  . . ..s==xx=xxxxx=xxxxxxxx=xxxxxxxx=xxxxxxxx=xxxxxxxxxxxx~..  .  . ..!E=xxxx=>",
"=xxxxx=E... .  .  ..`==xxxxx=xxxxx=xxxxxxxx=xxxxxxxx=xxxxxxxx=xxxxxxxx=J...  .  . .B>xxxxxxx",
"=xxxxx=xo.   .  . ..<=xxxxxxxxxxxxxxxx=xxxxxxxxxxxxxxxxx=xxxxxxxxxxxxx=@..  .  . ..s=xxxxx=>",
"==xxxxxy@...   .  .~=x=xx=xxxxxxxxxxxxxxxxxxxx=xxxxxxxxxxxxxxxxxxxxxxxxxB...  . . .<==xxxxx>",
"=xxxxxx==J.  .  ..BE=xxxxxxxxxxx=xx=xxxx=xx=xxxxxx=xxx=xxxx=xxxxxx>xxxx=Y! . .  ..R==xxxxx=>",
"=xxxxxxx=x{...  .o$=xxxxxxxxxxxxxxxxxxxxxxxxxxxxxxxxxxxxxxxxx=xxxxxxxxxx=Y(.. . |S==xxxxxxx>",
"=xxxxxxxx==${)Ks}x=xx=xxxxx=xxxxxxxxxx=xxxxxx=xxxxxxx=xxxx=xxxxxxxxxxxxx==>@J~)RE=xxxxxxxx=>",
"=xxxxxxxxxx===y=yxxxxxxxxxxxxx=xxxxxxxxxx=xxxxxxxxxxxxx=xxxxxxxxxxxxxxxxxxx=yyyy==xxxxxxxx=>",
"=xxxxxxxxxxxx=x=xxxxxxxxx=xxxxxxxxxxxxxxxxxxxxxx=xx=xxxxxxxxxxxxxx>xxxxxxxxx===>xxxx=xxx=x=>",
"=xxxxxxxxxxxxxxxxxxxxxx=xxxxxxxxx=xxxxx=xxxxxx=xxxxxxxxxxxxxxxxxxxxxxxxxxxxxxxxxxxxxxxxxxxxx",
"=xxxxxxxxxxxxxxxxx=xxxxxxxxxxx=xxxxx=xxxxxxxxxxxxxxx=xxx=xx=xxxxxxxxxxxxxxxxxxxx=xxx=xx=xx=>",
"=xxxxxxxxxx=xxxxxxxxx=xxxxx=xxxxxxxxxxxxx=xx=xxxxxxxxxxxxxxxxxxxxxxxxxxxxx=xx=xxxxxxxxxxxx=>",
"=xxxxxxxxxxxxxxxxxxxxxxxxxxxxxxx=xxxxxxxxxxxxxxxxxxxxx=xxxxxxx=xxxxxxxxxxxxxxxxxxx=x=xxxx==>",
"=xxxxxxxx=xxxxxx=xxxxxx=xxxxxxxxxxx=xx=xxxxxxxxxxxxxxxxxx=xxxxxxx=xxx=xx=xxxxxxxxxxxxxxxxxxx",
"=xxxxxxxxxxxxxxxxxxx=xxxxx=xxx=xxxxxxxxxxxxxx=xx=xxx=xxxxxxxxxxxxxxxxxxxxxxxxxxxxxxxx=xxxx=>",
"=xxxxxxxxxx=xx=xxxxxxxxxxxxxxxxxx=xxxxxx=xxxxxxxxxxxxxx=xxxxxx=xxxxx=xxxxxxxxxxxxxxxxxxxxxxx",
"=xxxxxxxxxxxxxxxxxxxxxxxxxxx=xxxxxxxx=xxxxxxxxxxxx=xxxxxxxxxxxxxxxxxxxxxxxxxxxxxxxxxxxxxxx=>",
"=xxxxxxx=xxxxxxx=xxx=xx=xxxxxxx=xxxxxxxxxx=xxxxxxxxxx=xxx=xx=xxxxxxxxxxxxxxxxxxxxxxxxxxxxxx>",
"=xxxxxxxxxxxx=xxxxxxxxxxxxxxxxxxxxxxxxx=xxxxxxxxxxxxxxxxxxxxxxxxxx=xx=xxx=xx=xxx=xxxxxxxxx=>",
"=>xxxxxxxxxxxxxxxxxxxxxxxxxxxxxxxxxxxxxxxxxxxxxxxxxxxxxxxxxxxxxxxxxxxxxxxxxxxxxxxxxxxxxxx>xx",
"yyy=y===xxxxxxxxxxxx=yy=y=y=y=y=y=y=y=y=y=y=y=y=y=y=yyy=yy=y=y=y==y==y=xxxxxxx=xxxxx==y==yyx",
"@@@S@@SY=x=xx=xxxxx=G@S@@@@@@@@@@@@@@@@@@@@@@@@@@@@@S@@@@S@@@@@@@@S@@SCxxxxxxxxxx=x='S@@@@@S",
".......{=xxxxxxxxxx=Y..................................................E=xx=xxx=xxx=o...... ",
"   ....Qyxx=xxx=xxx=Y.................................................!E=xxxxxxxxx==~..... .",
" . . ..{=xxxxxxxxxx=<..  .   .   .   .   .   .   .   .      .   .   ..!G=xxxxxxxxx==~. .    ",
"   . . Qy=xxxxxxxxx=Y...  . . .   .  ..   .  . .  .   .. .  . .  . . .!E=xxxxxxxxxx=).. .   ",
"  .  ..{yxxxx=xxxxx=Y..  . . .  ..  . . . . .   .  . .  . . .   . . ..!G=xxxxxx=xx==K..     ",
"      .sy=xxxxxxxxx=<.. .   . .  . .  .  . . .  .  .  .   .  . .   . .!E=xxxxxxxxx==).. .   ",
"    ...{yxxxxxxxxxx=Y.  . . . . .  .  . .   .  . .  . .  . .  .  . ...!Gxxxxxxxxxx==~ .     ",
"      .Qy==xxxxxxxx=Y... . .   . .  .  . . .  .   .  .  .   .  .  . ..!G=xxxxxxxxxx=~...  . ",
"     ..Jyxxxxxxxxxxy}.. .   . .   . . .  .  .  . . .  .  . . . . .  ...E=xxxxxxxxx==(..     ",
"    . .|x=xxxxxxxxxy{.. . .  . .  .  . .  .  .  .   .  .  .   .  . . ..@=xxxxxxxxx=E!.. .   ",
"  .  ...Cyxxxxxxxx=G|.  .   .   .  . .  .  .  . .  . .  .  . .  . .  ..K=xxxxxxxxxy{..      ",
"      ..|$y=x>xxx==s...  .  . .  .  .  .  .  .   . .  .   .   .  .  . ..`y=xxxxxxyY...      ",
"      ...(<====y=xs...  . . .  . . .  .  .  .  . .  .   . .  . .. . . ...`=======}!...      ",
"       ....)}$E'{|... .  .  . .  .  .  . . . .  . .  .  .  .  .  .. . . ..B`<G$@K.... .     "
};
