/* XPM */
static const char *bus_b_xpm[] = {
/* columns rows colors chars-per-pixel */
"92 113 65 1",
"  c #FCFEFC",
"k c #9CCEFC",
"Z c #0456D4",
"h c #BCDAFC",
"G c #7CB6FC",
"8 c #C4E2FC",
"M c #8CC6E4",
"B c #94DAFC",
"# c #E4EEFC",
"N c #A4CAF4",
"t c #CCEAFC",
"e c #5C9EFC",
"r c #A4CAFC",
"O c #ECF6FC",
"s c #8CC6FC",
"5 c #7CAAFC",
"= c #ACD2FC",
": c #040204",
"7 c #CCDEFC",
"a c #B4DAFC",
"g c #54AAFC",
"i c #8CBAFC",
"V c #2C7ED4",
"% c #D4E6FC",
"w c #94C2FC",
"1 c #DCEEFC",
"> c #1C8EFC",
"; c #043EFC",
"3 c #64BAFC",
". c #FCFEFC",
"p c #E4F6FC",
", c #A4D2FC",
"y c #94B6FC",
"f c #C4DEFC",
"m c #ACDAFC",
"D c #9CBEFC",
"u c #CCE6FC",
"+ c #ECF2FC",
"A c #0426FC",
"X c #F4FAFC",
"d c #B4D6FC",
"2 c #BCDEFC",
"@ c #DCEAFC",
"j c #C4E6FC",
"0 c #9CC6FC",
"$ c #E4F2FC",
"C c #A4CEF4",
"v c #BCD2FC",
"- c #5CA2FC",
"6 c #A4CEFC",
"b c #C4DAF4",
"q c #ECFAFC",
"x c #ACD6F4",
"< c #C4DAFC",
"l c #CCE2F4",
"9 c #0402FC",
"* c #CCE2FC",
"4 c #B4DEFC",
"n c #A4C2FC",
"& c #D4EAFC",
"F c #74BAFC",
"S c #3C7EFC",
"o c #F4F6FC",
"c c #DCF2FC",
"z c #B4D2FC",
/* pixels */
"                                 .XXoXXO+@O. .O  o##XOXoXXX                                 ",
"                          .Xo$##%&*=-;:::::::::::::::::>,<&*@1++X.                          ",
"                      oO$#23::::::::::::::::::::::::::::::::::::;=*@+OX.                    ",
"                 Xo#@45:::::::::::::::::::::::::::::::::::::::::::::::671OX.                ",
"               +%89:::::::::::::::::::::::::::::::::::::::::::::::::::::::08#q.             ",
"           o+@w:::::::::::::::::::::::::::::::::::::::::::::::::::::::::::::::2+X           ",
"          O<::::::::::::::::::::::::::::::::::::::::::::::::::::::::::::::::::::e@X         ",
"         @::::::::::::::::::::::::::::::::::::::::::::::::::::::::::::::::::::::::rO        ",
"       .t::::::::::::::::::::::::::::::::::::::::::::::::::::::::::::::::::::::::::y#       ",
"      .u::::::::::::::::::::::::::::::::::::::::::::::::::::::::::::::::::::::::::::io      ",
"      p::::::::::::::::::::::::::::::::::::::::::::::::::::::::::::::::::::::::::::::aX     ",
"     X6:::::::::::::::::::::::::::::::::::::::::::::::::::::::::::::::::::::::::::::::1     ",
"     #::::::::::::::::::::::::::::::::::::::::::::::::::::::::::::::::::::::::::::::::so    ",
"    .0:::::::::::::::::::::::::::::::::::::::::::::::::::::::::::::::::::::::::::::::::#    ",
"    #::::::::::::::::::::::::::::::::::::::::::::::::::::::::::::::::::::::::::::::::::d.   ",
"    u::::::::::::::::::::::::::::::::::::::::::::::::::::::::::::::::::::::::::::::::::9O   ",
"   Xf:::::::::::::::::::::::::::::::::::::::::::::::::::::::::::::::::::::::::::::::::::$   ",
"   Og:::::::::::::::::::::::::::::::::::::::::::::::::::::::::::::::::::::::::::::::::::#   ",
"   o::::::::::::::::::::::::::::::::::::::::::::::::::::::::::::::::::::::::::::::::::::%   ",
"   #::::::::::::::::::::::::::::::::::::::::::::::::::::::::::::::::::::::::::::::::::::a.  ",
"   @::::::::::::::::::::::::::::::::::::::::::::::::::::::::::::::::::::::::::::::::::::h   ",
"   @::::::::::::::::::::::::::::::::::::::::::::::::::::::::::::::::::::::::::::::::::::j.  ",
"   @::::::::::::::::::::::::::::::::::::::::::::::::::::::::::::::::::::::::::::::::::::8.  ",
"   @::::::::::::::::::::::::::::::::::::::::::::::::::::::::::::::::::::::::::::::::::::j.  ",
"   @::::::ku%%l%%l%%l@7%l%l@%l%%l%%l%%l%%@z::::::xl%%*%%l%%l%%l@7%l%l@%l%%l%%l%%%%::::::8.  ",
"   @::::::8       .         .. .  .  .  ..&::::::*          .        .. . .   .  X::::::j.  ",
"   @::::::2                               #::::::uX                               ::::::8.  ",
"   @::::::l                               &::::::l.                               ::::::j.  ",
"   @::::::2                               $::::::tX                               ::::::8.  ",
"   @::::::l                               &::::::lX                               ::::::j.  ",
"   @::::::4                               $::::::t.                               ::::::8.  ",
"   @::::::l                               @::::::%X                               ::::::j.  ",
"   @::::::2                               c::::::lX                               ::::::8.  ",
"   @::::::l                               @::::::t                                ::::::j.  ",
"   @::::::4                               c::::::lX                               ::::::8.  ",
"   @::::::l                               @::::::l                                ::::::j.  ",
"   @::::::2                               c::::::tX                               ::::::8.  ",
"   @::::::l                               @::::::l.                               ::::::j.  ",
"   @::::::4                               c::::::lX                               ::::::8.  ",
"   @::::::l                               @::::::tX                               ::::::f   ",
"Oo$%::::::2                               c::::::t.                               ::::::v$Oo",
"::::::::::l                               @::::::&X                               ::::::::::",
"::::::::::4                               c::::::lX                               ::::::::::",
"::::::::::l                               @::::::t                                ::::::::::",
"::::::::::2                               c::::::lX                               ::::::::::",
"::::::::::l                               @::::::l                                ::::::::::",
"::::::::::4                               c::::::lX                               ::::::::::",
"::::::::::l                               @::::::t                                ::::::::::",
"::::::::::2                               c::::::lX                               ::::::::::",
"::::::::::l                               @::::::tX                               ::::::::::",
"::::::::::4                               c::::::l                                ::::::::::",
"::::::::::l                               @::::::&X                               ::::::::::",
"::::::::::2                               c::::::lX                               ::::::::::",
"::::::::::l                               @::::::t                                ::::::::::",
"::::::::::4                               c::::::lX                               ::::::::::",
"::::::::::l                               @::::::l                                ::::::::::",
"::::::::::2                               c::::::tX                               ::::::::::",
"::::::::::l                               @::::::l.                               ::::::::::",
"::::::::::4                               c::::::lX                               ::::::::::",
"::::::::::l                               @::::::t                               .::::::::::",
"*8fz::::::8                               1::::::lX                               ::::::w88l",
"   %::::::::::::::::::::::::::::::::::::::::::::::::::::::::::::::::::::::::::::::::::::b.  ",
"   #::::::::::::::::::::::::::::::::::::::::::::::::::::::::::::::::::::::::::::::::::::8X. ",
"   @::::::::::::::::::::::::::::::::::::::::::::::::::::::::::::::::::::::::::::::::::::l.  ",
"   @::::::::::::::::::::::::::::::::::::::::::::::::::::::::::::::::::::::::::::::::::::8X  ",
"   @::::::::::::::::::::::::::::::::::::::::::::::::::::::::::::::::::::::::::::::::::::l   ",
"   @::::::::::::::::::::::::::::::::::::::::::::::::::::::::::::::::::::::::::::::::::::8X  ",
"   @::::::::::::::::::::::::::::::::::::::::::::::::::::::::::::::::::::::::::::::::::::l.  ",
"   @::::::::::::::::::::::::::::::::::::::::::::::::::::::::::::::::::::::::::::::::::::8X  ",
"   @::::::::::::::::::::::::::::::::::::::::::::::::::::::::::::::::::::::::::::::::::::l   ",
"   @::::::::::::::::::::::::::::::::::::::::::::::::::::::::::::::::::::::::::::::::::::8X  ",
"   @::::::::::::::::::::::::::::::::::::::::::::::::::::::::::::::::::::::::::::::::::::l.  ",
"   @::::::::::::::::::::::::::::::::::::::::::::::::::::::::::::::::::::::::::::::::::::8X  ",
"   @::::::::::::::::::::::::::::::::::::::::::::::::::::::::::::::::::::::::::::::::::::l   ",
"   @::::::::::::::::::::::::::::::::::::::::::::::::::::::::::::::::::::::::::::::::::::8X  ",
"   @::::::::::::::::::::::::::::::::::::::::::::::::::::::::::::::::::::::::::::::::::::l.  ",
"   @:::::::::::::n1%@m::::::::::::::::::::::::::::::::::::::::::::::::98%@7:::::::::::::8X  ",
"   @::::::::::::lX   o&::::::::::::::::::::::::::::::::::::::::::::::z+.  X#0:::::::::::l   ",
"   @:::::::::::@X      #::::::::::::::::::::::::::::::::::::::::::::2+      OM::::::::::8X  ",
"   @::::::::::NX       X2:::::::::::::::::::::::::::::::::::::::::::$        &::::::::::l.  ",
"   @::::::::::&         O::::::::::::::::::::::::::::::::::::::::::=o        XN:::::::::8X  ",
"   @::::::::::O         pB:::::::::::::::::::::::::::::::::::::::::+         o%:::::::::l   ",
"   @::::::::::+          @:::::::::::::::::::::::::::::::::::::::::&          O:::::::::8X  ",
"   @::::::::::O         oM:::::::::::::::::::::::::::::::::::::::::+          #:::::::::l.  ",
"   @::::::::::$         O::::::::::::::::::::::::::::::::::::::::::bX        ox:::::::::8X  ",
"   @::::::::::b.        l::::::::::::::::::::::::::::::::::::::::::9+        1::::::::::l   ",
"   @:::::::::::l       +::::::::::::::::::::::::::::::::::::::::::::l+      ox::::::::::8X  ",
"   @:::::::::::9c.    1V:::::::::::::::::::::::::::::::::::::::::::::bX    ON:::::::::::l.  ",
"   @:::::::::::::h$X#b::::::::::::::::::::::::::::::::::::::::::::::::C&XOlZ::::::::::::8X  ",
"   @::::::::::::::::::::::::::::::::::::::::::::::::::::::::::::::::::::::::::::::::::::l   ",
"   @::::::::::::::::::::::::::::::::::::::::::::::::::::::::::::::::::::::::::::::::::::8X  ",
"   @::::::::::::::::::::::::::::::::::::::::::::::::::::::::::::::::::::::::::::::::::::l.  ",
"   @::::::::::::::::::::::::::::::::::::::::::::::::::::::::::::::::::::::::::::::::::::8X  ",
"   @::::::::::::::::::::::::::::::::::::::::::::::::::::::::::::::::::::::::::::::::::::l   ",
"   @::::::::::::::::::::::::::::::::::::::::::::::::::::::::::::::::::::::::::::::::::::8X  ",
"   @::::::::::::::::::::::::::::::::::::::::::::::::::::::::::::::::::::::::::::::::::::l.  ",
"   @::::::::::::::::::::::::::::::::::::::::::::::::::::::::::::::::::::::::::::::::::::8X  ",
"   @::::::::::::::::::::::::::::::::::::::::::::::::::::::::::::::::::::::::::::::::::::l   ",
"   @::::::::::::::::::::::::::::::::::::::::::::::::::::::::::::::::::::::::::::::::::::8X  ",
"   @::::::::::::::::::::::::::::::::::::::::::::::::::::::::::::::::::::::::::::::::::::l.  ",
"   @::::::::::::::::::::::::::::::::::::::::::::::::::::::::::::::::::::::::::::::::::::8X  ",
"   @::::::::::::::::::::::::::::::::::::::::::::::::::::::::::::::::::::::::::::::::::::l   ",
"   @::::::::::::::::::::::::::::::::::::::::::::::::::::::::::::::::::::::::::::::::::::8X  ",
"   @::::::::::::::::::::::::::::::::::::::::::::::::::::::::::::::::::::::::::::::::::::l.  ",
"   @::::::::::::92&l%lul%l%ll%l%ll&ll%l%ll&lul%l%l%ll%ll&l%ll%lu%l%ll%ll&tl#::::::::::::8X  ",
"   @::::::::::::A+XXX X. XX X XXX X XX XX XX. X XXX XX X XXX X XX XX XX X.XX::::::::::::l   ",
"   @::::::::::::9O                                                          ::::::::::::hX  ",
"   #::::::::::::y.                                                         1::::::::::::b   ",
"   XS:::::::::::bX                                                         O::::::::::::@   ",
"   .2:::::::::::&                                                          oD:::::::::::o   ",
"    OF:::::::::NX                                                           #::::::::::u.   ",
"    .+=:::::::dO                                                            X@G::::::9%.    ",
"      o++ .X+$o                                                               X+o  X#O      "
};
