/* XPM */
static const char *tsnsoft_xpm[] = {
/* columns rows colors chars-per-pixel */
"32 32 154 2",
"%. c Black",
"}  c #CACACA",
"L  c #E8E8E8",
".  c #F7F7F7",
"4. c #5A5A5A",
"(  c #696969",
"e. c #787878",
"B  c #878787",
"e  c #969696",
"s  c #A5A5A5",
"m  c #B4B4B4",
"h  c #C3C3C3",
"Q  c #E1E1E1",
"X  c #F0F0F0",
"i. c #353535",
"   c #FFFFFF",
"N. c #626262",
"*. c #717171",
"d  c #8F8F8F",
"y  c #9E9E9E",
"l  c #ADADAD",
":. c #010101",
"a  c #CBCBCB",
")  c #DADADA",
"&. c #1F1F1F",
"~  c #E9E9E9",
";  c #F8F8F8",
"2. c #3D3D3D",
"f. c #4C4C4C",
"h. c #5B5B5B",
"o. c #6A6A6A",
"l. c #797979",
"v  c #A6A6A6",
"7  c #B5B5B5",
"O. c #C4C4C4",
"y. c #090909",
"[  c #D3D3D3",
"A  c #E2E2E2",
"3. c #272727",
"$  c #F1F1F1",
"g. c #454545",
"q. c #545454",
"0. c #636363",
";. c #727272",
"F  c #9F9F9F",
"X. c #BDBDBD",
"U  c #CCCCCC",
"S. c #202020",
":  c #EAEAEA",
"@  c #F9F9F9",
"A. c #5C5C5C",
"2  c #898989",
"j  c #A7A7A7",
"_  c #E3E3E3",
">  c #F2F2F2",
"B. c #737373",
"=. c #828282",
"k. c #A0A0A0",
"W  c #CDCDCD",
"`  c #DCDCDC",
"t  c #EBEBEB",
"o  c #FAFAFA",
"x. c #4E4E4E",
"@. c #5D5D5D",
"t. c #6C6C6C",
"5. c #8A8A8A",
"g  c #999999",
"D  c #A8A8A8",
"u  c #B7B7B7",
"Z  c #C6C6C6",
"S  c #D5D5D5",
"n  c #E4E4E4",
"=  c #F3F3F3",
"#. c #565656",
"M. c #656565",
"C. c #747474",
"8  c #838383",
".. c #929292",
"f  c #A1A1A1",
"C  c #BFBFBF",
">. c #040404",
"/  c #CECECE",
"|  c #131313",
"N  c #ECECEC",
"%  c #FBFBFB",
"Y  c #404040",
"v. c #4F4F4F",
"p. c #5E5E5E",
"d. c #6D6D6D",
"r. c #9A9A9A",
"K  c #A9A9A9",
"I  c #B8B8B8",
"{  c #D6D6D6",
"#  c #F4F4F4",
"8. c #393939",
"s. c #484848",
"1. c #575757",
"z. c #666666",
"u. c #757575",
"G  c #939393",
"-. c #B1B1B1",
"r  c #C0C0C0",
"$. c #050505",
"P  c #CFCFCF",
"6. c #141414",
"z  c #DEDEDE",
"<. c #232323",
",  c #EDEDED",
"&  c #FCFCFC",
"m. c #6E6E6E",
"H  c #8C8C8C",
"q  c #9B9B9B",
"R  c #B9B9B9",
"0  c #C8C8C8",
"]  c #D7D7D7",
"!  c #E6E6E6",
"9. c #2B2B2B",
"*  c #F5F5F5",
"w. c #676767",
"3  c #858585",
"5  c #949494",
"T  c #C1C1C1",
"p  c #D0D0D0",
"+. c #151515",
"<  c #EEEEEE",
"O  c #FDFDFD",
"Z. c #606060",
"7. c #6F6F6F",
"b. c #7E7E7E",
"6  c #8D8D8D",
"V  c #ABABAB",
"x  c #BABABA",
"b  c #C9C9C9",
"J  c #0E0E0E",
"1  c #E7E7E7",
"-  c #F6F6F6",
"n. c #595959",
"V. c #686868",
"i  c #777777",
"M  c #959595",
"E  c #A4A4A4",
" . c #B3B3B3",
"'  c #C2C2C2",
",. c #D1D1D1",
"^  c #E0E0E0",
"c  c #EFEFEF",
"c. c #343434",
"+  c #FEFEFE",
"a. c #434343",
"j. c #707070",
"w  c #8E8E8E",
"4  c #9D9D9D",
"k  c #ACACAC",
"9  c #BBBBBB",
/* pixels */
"    .   X   o O +   + @ @ +   + O       # $ %   o o &       O @ ",
"* o =   +       + O         O + % o &         - O O & o ; %     ",
"  + @   @ = : o   o .     . o     o = * %   + o         o @ O   ",
"+                   + % % +             % o     O           & @ ",
"+     > %     * , O   o o   O , = o       O ; * . * * %       % ",
"      =       #       % %           - @               +       O ",
"% >       > +   O # ;     ; # O &       ; # - o < @       % o O ",
"  >   O 1 2 3 4 5 6 7 = = 7 6 5 8 9 > * 0 q w e q r t     o &   ",
"&   o   . y u 2 i p a O   s d f g h     j k l s g a ;           ",
"          z % x j   . + c v b       n o r m   # M b @   O O + o ",
"*   # N   +   7 B X +   o V y V C Z c   A M .   v S       + & @ ",
"O   + o     + j D O     $ x F G H b J & s q - > j b N &       + ",
"    o       X x K -   L P u I C U F Y l T R +   E 7 W Q #       ",
"% > ,   #   * ! I ~ & c L ^ / C l ^ ( L p v @ X S ) _ c %     + ",
"        @     .       = %   % N   # O ^         # o       + O   ",
"&       1   ` Z ' ] c z P [ p ] 8 { : $ T a I } [ _ .   o # %   ",
"  - ;   & | i  .u ' ..= S r C X.o.O.F ` h u  .7 C x >   $   t   ",
"    .     +.@.#.$.%.&.*.=.%.h -.( R ;.:.>.Q   ,.k n     =   *   ",
",     ; c <.1.2.3.( 4.M 5.6.7.8.9.i 0.q.w.  & e.7.;     $       ",
".         A &     #.;.r.t.y.u.1.i.p.a.%     @ p.s.  O . ; +     ",
"        - + d.f.g.h.j.k.l.z.x.c.v.o.i.&   *   b.n.  o     @ o + ",
". :     -   m.@.m.M.i.  M.z.*.@.f.N.1.. o   . B.N.  *       &   ",
"      - t   $   *   ~     :   ~ V.C.f.+   + X i Z.- ; @         ",
"$ + ;     <   &   N     @ ;     A.5 S..   N   *.7.    @ X     o ",
"                                                                ",
"                                                                ",
"                                                                ",
"                                                                ",
"                                                                ",
"                                                                ",
"                                                                ",
"                                                                "
};
